<svg xmlns="http://www.w3.org/2000/svg" viewBox="0 0 480 320">
  <rect width="480" height="320" fill="#f2f2f2"/>
  <rect y="240" width="480" height="80" fill="#e7e7e7"/>
  <rect x="60" y="60" width="120" height="160" fill="#d4d4d4" opacity="0.5"/>
  <rect x="120" y="150" width="260" height="90" rx="6" fill="#535353"/>
  <rect x="120" y="150" width="260" height="10" fill="#686868"/>
  <ellipse cx="330" cy="130" rx="90" ry="60" fill="none"/>
  <g>
    <rect x="230" y="60" width="90" height="80" rx="8" fill="#3f3f3f"/>
    <rect x="238" y="68" width="74" height="56" rx="4" fill="#5b5b5b"/>
    <rect x="215" y="138" width="120" height="10" rx="4" fill="#282828"/>
  </g>
  <g>
    <ellipse cx="180" cy="205" rx="34" ry="34" fill="#d1d1d1"/>
    <path d="M150 190 Q180 165 210 190 L210 205 Q180 180 150 205 Z" fill="#2f2f2f"/>
    <rect x="150" y="235" width="60" height="70" rx="16" fill="#858585"/>
    <rect x="150" y="230" width="60" height="20" rx="10" fill="#6c6c6c"/>
    <path d="M155 245 Q180 210 205 245" stroke="#595959" stroke-width="6" fill="none"/>
  </g>
  <g>
    <rect x="360" y="185" width="26" height="30" rx="4" fill="#ffffff" stroke="#a1a1a1" stroke-width="3"/>
    <rect x="365" y="178" width="16" height="10" fill="#a1a1a1"/>
    <path d="M360 190 Q373 195 386 190" stroke="#4b4b4b" stroke-width="4" fill="none"/>
  </g>
  <rect x="0" y="300" width="480" height="20" fill="#d3d3d3"/>
</svg>
