<svg xmlns="http://www.w3.org/2000/svg" viewBox="0 0 480 320">
  <rect width="480" height="320" fill="#eef2ff"/>
  <rect y="240" width="480" height="80" fill="#e2e8f0"/>
  <rect x="60" y="60" width="120" height="160" fill="#c7d2fe" opacity="0.5"/>
  <rect x="120" y="150" width="260" height="90" rx="6" fill="#92400e"/>
  <rect x="120" y="150" width="260" height="10" fill="#b45309"/>
  <ellipse cx="330" cy="130" rx="90" ry="60" fill="none"/>
  <g>
    <rect x="230" y="60" width="90" height="80" rx="8" fill="#334155"/>
    <rect x="238" y="68" width="74" height="56" rx="4" fill="#4f46e5"/>
    <rect x="215" y="138" width="120" height="10" rx="4" fill="#1e293b"/>
  </g>
  <g>
    <ellipse cx="180" cy="205" rx="34" ry="34" fill="#f2c9a0"/>
    <path d="M150 190 Q180 165 210 190 L210 205 Q180 180 150 205 Z" fill="#3f2a1d"/>
    <rect x="150" y="235" width="60" height="70" rx="16" fill="#06b6d4"/>
    <rect x="150" y="230" width="60" height="20" rx="10" fill="#0891b2"/>
    <path d="M155 245 Q180 210 205 245" stroke="#0e7490" stroke-width="6" fill="none"/>
  </g>
  <g>
    <rect x="360" y="185" width="26" height="30" rx="4" fill="#ffffff" stroke="#94a3b8" stroke-width="3"/>
    <rect x="365" y="178" width="16" height="10" fill="#94a3b8"/>
    <path d="M360 190 Q373 195 386 190" stroke="#6b4226" stroke-width="4" fill="none"/>
  </g>
  <rect x="0" y="300" width="480" height="20" fill="#cbd5e1"/>
</svg>
