<svg xmlns="http://www.w3.org/2000/svg" viewBox="0 0 480 320">
  <rect width="480" height="320" fill="#f8fafc"/>
  <rect y="250" width="480" height="70" fill="#e2e8f0"/>
  <g>
    <rect x="60" y="60" width="360" height="18" fill="#94a3b8"/>
    <rect x="60" y="140" width="360" height="18" fill="#94a3b8"/>
    <rect x="60" y="220" width="360" height="18" fill="#94a3b8"/>
    <rect x="60" y="60" width="18" height="178" fill="#64748b"/>
    <rect x="402" y="60" width="18" height="178" fill="#64748b"/>
  </g>
  <g>
    <circle cx="110" cy="95" r="14" fill="#dc2626"/>
    <circle cx="140" cy="95" r="14" fill="#dc2626"/>
    <circle cx="170" cy="95" r="14" fill="#dc2626"/>
    <circle cx="110" cy="175" r="14" fill="#16a34a"/>
    <circle cx="140" cy="175" r="14" fill="#16a34a"/>
  </g>
  <g>
    <ellipse cx="300" cy="180" rx="26" ry="26" fill="#f2c9a0"/>
    <path d="M280 158 Q300 135 320 158 L320 172 L280 172 Z" fill="#1e293b"/>
    <rect x="278" y="204" width="44" height="60" rx="12" fill="#06b6d4"/>
  </g>
  <rect x="330" y="190" width="18" height="14" fill="#16a34a"/>
  <rect x="352" y="190" width="18" height="14" fill="#16a34a"/>
</svg>
