<svg xmlns="http://www.w3.org/2000/svg" viewBox="0 0 480 320">
  <rect width="480" height="320" fill="#f5f5f4"/>
  <rect y="260" width="480" height="60" fill="#d6d3d1"/>
  <g>
    <rect x="30" y="40" width="60" height="220" fill="#78716c"/>
    <rect x="38" y="55" width="14" height="30" fill="#dc2626"/>
    <rect x="55" y="55" width="14" height="30" fill="#4f46e5"/>
    <rect x="38" y="95" width="14" height="30" fill="#16a34a"/>
    <rect x="55" y="95" width="14" height="30" fill="#f59e0b"/>
  </g>
  <g>
    <rect x="390" y="40" width="60" height="220" fill="#78716c"/>
    <rect x="398" y="55" width="14" height="30" fill="#06b6d4"/>
    <rect x="415" y="55" width="14" height="30" fill="#f59e0b"/>
    <rect x="398" y="95" width="14" height="30" fill="#dc2626"/>
    <rect x="415" y="95" width="14" height="30" fill="#4f46e5"/>
  </g>
  <g>
    <rect x="170" y="230" width="140" height="50" rx="6" fill="#92400e"/>
    <circle cx="185" cy="285" r="10" fill="#1e293b"/>
    <circle cx="295" cy="285" r="10" fill="#1e293b"/>
    <rect x="185" y="215" width="30" height="18" fill="#4f46e5"/>
    <rect x="220" y="215" width="30" height="18" fill="#dc2626"/>
    <rect x="255" y="215" width="30" height="18" fill="#16a34a"/>
  </g>
  <g>
    <ellipse cx="230" cy="150" rx="26" ry="26" fill="#d9a066"/>
    <path d="M204 138 Q204 105 230 103 Q256 105 256 138" fill="#1e293b"/>
    <rect x="204" y="176" width="52" height="70" rx="14" fill="#0891b2"/>
  </g>
</svg>
