<svg xmlns="http://www.w3.org/2000/svg" viewBox="0 0 480 320">
  <rect width="480" height="320" fill="#fafafa"/>
  <rect y="260" width="480" height="60" fill="#e7e7e7"/>
  <rect x="20" y="30" width="150" height="100" rx="4" fill="#ffffff" stroke="#d3d3d3" stroke-width="4"/>
  <line x1="40" y1="60" x2="150" y2="60" stroke="#5b5b5b" stroke-width="4"/>
  <line x1="40" y1="80" x2="130" y2="80" stroke="#858585" stroke-width="4"/>
  <line x1="40" y1="100" x2="150" y2="100" stroke="#5b5b5b" stroke-width="4"/>
  <g>
    <rect x="60" y="200" width="100" height="70" rx="6" fill="#535353"/>
    <rect x="70" y="180" width="45" height="30" rx="4" fill="#3f3f3f"/>
    <ellipse cx="130" cy="220" rx="18" ry="18" fill="#d1d1d1"/>
    <rect x="112" y="238" width="36" height="45" rx="10" fill="#5b5b5b"/>
  </g>
  <g>
    <rect x="260" y="205" width="100" height="65" rx="6" fill="#535353"/>
    <rect x="270" y="185" width="45" height="30" rx="4" fill="#3f3f3f"/>
    <ellipse cx="330" cy="222" rx="18" ry="18" fill="#aaaaaa"/>
    <rect x="312" y="240" width="36" height="45" rx="10" fill="#6f6f6f"/>
  </g>
  <g>
    <ellipse cx="230" cy="150" rx="20" ry="20" fill="#d1d1d1"/>
    <rect x="210" y="170" width="40" height="60" rx="10" fill="#5c5c5c"/>
    <rect x="180" y="150" width="30" height="6" fill="#3f3f3f" transform="rotate(20 195 153)"/>
  </g>
  <g>
    <ellipse cx="400" cy="230" rx="18" ry="18" fill="#d1d1d1"/>
    <rect x="382" y="248" width="36" height="55" rx="10" fill="#6c6c6c"/>
    <ellipse cx="400" cy="215" rx="18" ry="6" fill="#2f2f2f"/>
  </g>
  <rect x="380" y="255" width="26" height="30" fill="#737373"/>
  <rect x="385" y="248" width="16" height="10" fill="#545454"/>
</svg>
