<svg xmlns="http://www.w3.org/2000/svg" viewBox="0 0 480 320">
  <rect width="480" height="320" fill="#e8e8e8"/>
  <rect y="230" width="480" height="90" fill="#e7e7e7"/>
  <polygon points="60,230 240,60 420,230" fill="#f4f4f4" stroke="#a1a1a1" stroke-width="3"/>
  <rect x="110" y="130" width="24" height="100" fill="#d3d3d3"/>
  <rect x="170" y="130" width="24" height="100" fill="#d3d3d3"/>
  <rect x="230" y="130" width="24" height="100" fill="#d3d3d3"/>
  <rect x="290" y="130" width="24" height="100" fill="#d3d3d3"/>
  <rect x="350" y="130" width="24" height="100" fill="#d3d3d3"/>
  <rect x="60" y="225" width="360" height="14" fill="#a1a1a1"/>
  <g>
    <ellipse cx="150" cy="255" rx="16" ry="16" fill="#d1d1d1"/>
    <rect x="134" y="270" width="32" height="45" rx="10" fill="#5c5c5c"/>
    <rect x="140" y="248" width="20" height="24" fill="#3f3f3f"/>
  </g>
  <g>
    <ellipse cx="200" cy="258" rx="16" ry="16" fill="#aaaaaa"/>
    <rect x="184" y="273" width="32" height="42" rx="10" fill="#6f6f6f"/>
  </g>
  <g>
    <ellipse cx="250" cy="256" rx="16" ry="16" fill="#d1d1d1"/>
    <rect x="234" y="271" width="32" height="44" rx="10" fill="#5b5b5b"/>
    <rect x="240" y="240" width="20" height="10" fill="#282828"/>
  </g>
</svg>
